<svg viewBox="0 0 96 96" width="96" height="96" xmlns="http://www.w3.org/2000/svg">
 <g>
  <path d="m88.599998,17.700001c-1.799995,-0.400002 -4.400002,-0.900002 -7.900002,-2.400001c-9.699997,-4.2 -22.399998,-7.8 -33.299995,-9.5c-21.000002,-3.3 -34.700002,5.5 -37.300001,15.8c-5,19.6 -4.5,26.6 -3.2,29.300001c-0.2,1.5 -0.3,2.799999 -0.1,3.5c0.5,2.299999 2.3,4.399998 3.599999,5.599998c0.6,19.400002 16.6,34.900002 36.1,34.900002l1.5,0c19.400002,0 35,-15.5 36.199997,-36.100002l0,-26c4.800003,-2.099998 9.200005,-5.099998 9.900002,-9c0.700005,-4.799999 -3.199997,-5.599998 -5.5,-6.099998zm-10.199997,40.899998c-1.099998,17.400002 -14.099998,30.5 -30.400002,30.5l-1.5,0c-16.799999,0 -30.4,-13.599998 -30.4,-30.399998l0,-1.400002l-1.1,-0.899998c-0.7,-0.600002 -1.7,-1.600002 -2.3,-2.5c1,0.099998 2.1,0.199997 3.1,0.199997c0.999999,0 1.8,-0.099998 2.3,-0.199997c1.4,-0.300003 2.4,-1 2.9,-2c1.6,-2.900002 2.5,-8.400002 3.5,-15.300003c0.200001,-1.099998 0.299999,-2.299999 0.5,-3.299999c4.6,1.900002 10.5,3.400002 17.400002,4.5c9.799999,1.5 22.099998,0.799999 32.699997,-1.899998c1,-0.300003 2.099998,-0.600002 3.300003,-0.900002l0,23.599998zm5.299995,-31.999998c-0.799995,0.4 -1.699997,0.799999 -2.699997,1.199999c-0.800003,0.300001 -1.800003,0.700001 -2.800003,1c-1.299995,0.400002 -2.799995,0.900002 -4.5,1.300001c-9.899998,2.499998 -21.299995,3.199999 -30.399998,1.799999c-8,-1.199999 -14.299999,-3 -18.799999,-5.4l-1.4,-0.700001l-1.300001,0.700001c-1.799999,0.9 -2,2.5 -3,9.099998c-0.599998,4 -1.4,9.800003 -2.5,12.600002c-0.799999,0 -1.9,0 -2.999999,-0.200001c-0.5,-0.099998 -1,-0.099998 -1.400001,-0.200001c-0.2,-1 -0.299999,-3.099998 0.1,-6.599998c0.5,-4 1.5,-10 3.7,-18.400002c0.2,-0.799999 0.500001,-1.599998 0.900001,-2.299999c4.5,-9.3 20.300001,-10.6 29.9,-9.1c4.299999,0.700001 9,1.700001 13.599998,2.900001c3.200001,0.8 6.300003,1.8 9.400002,2.8c2.800003,0.9 5.5,1.9 7.900002,3c0.299995,0.1 0.699997,0.299999 1,0.4c1.400002,0.6 2.699997,1.1 3.900002,1.5c2.099998,0.700001 3.899994,1.1 5.099998,1.299999c0.199997,0 0.400002,0.1 0.599998,0.1c-0.599998,0.9 -2,2 -4.300003,3.200001z" fill="#000000"/>
 </g>
</svg>
